ffprobe version 4.4 Copyright (c) 2007-2021 the FFmpeg developers
  built with Apple clang version 12.0.5 (clang-1205.0.22.9)
  configuration: --prefix=/opt/homebrew/Cellar/ffmpeg/4.4_1 --enable-shared --enable-pthreads --enable-version3 --enable-avresample --cc=clang --host-cflags= --host-ldflags= --enable-ffplay --enable-gnutls --enable-gpl --enable-libaom --enable-libbluray --enable-libdav1d --enable-libmp3lame --enable-libopus --enable-librav1e --enable-librubberband --enable-libsnappy --enable-libsrt --enable-libtesseract --enable-libtheora --enable-libvidstab --enable-libvorbis --enable-libvpx --enable-libwebp --enable-libx264 --enable-libx265 --enable-libxml2 --enable-libxvid --enable-lzma --enable-libfontconfig --enable-libfreetype --enable-frei0r --enable-libass --enable-libopencore-amrnb --enable-libopencore-amrwb --enable-libopenjpeg --enable-libspeex --enable-libsoxr --enable-libzmq --enable-libzimg --disable-libjack --disable-indev=jack --enable-videotoolbox
  libavutil      56. 70.100 / 56. 70.100
  libavcodec     58.134.100 / 58.134.100
  libavformat    58. 76.100 / 58. 76.100
  libavdevice    58. 13.100 / 58. 13.100
  libavfilter     7.110.100 /  7.110.100
  libavresample   4.  0.  0 /  4.  0.  0
  libswscale      5.  9.100 /  5.  9.100
  libswresample   3.  9.100 /  3.  9.100
  libpostproc    55.  9.100 / 55.  9.100
[NULL @ 0x138008200] Opening 'Bee Farm.mp4' for reading
[file @ 0x137e1ee90] Setting default whitelist 'file,crypto,data'
[mov,mp4,m4a,3gp,3g2,mj2 @ 0x138008200] Format mov,mp4,m4a,3gp,3g2,mj2 probed with size=2048 and score=100
[mov,mp4,m4a,3gp,3g2,mj2 @ 0x138008200] ISO: File Type Major Brand: mp42
[mov,mp4,m4a,3gp,3g2,mj2 @ 0x138008200] Unknown dref type 0x206c7275 size 12
[mov,mp4,m4a,3gp,3g2,mj2 @ 0x138008200] Processing st: 0, edit list 0 - media time: 2, duration: 425
[mov,mp4,m4a,3gp,3g2,mj2 @ 0x138008200] stts: 0 ctts: 2, ctts_index: 0, ctts_count: 425
[mov,mp4,m4a,3gp,3g2,mj2 @ 0x138008200] stts: 1 ctts: 5, ctts_index: 1, ctts_count: 425
[mov,mp4,m4a,3gp,3g2,mj2 @ 0x138008200] stts: 2 ctts: 2, ctts_index: 2, ctts_count: 425
...
[mov,mp4,m4a,3gp,3g2,mj2 @ 0x138008200] stts: 423 ctts: 1, ctts_index: 423, ctts_count: 425
[mov,mp4,m4a,3gp,3g2,mj2 @ 0x138008200] stts: 424 ctts: 2, ctts_index: 424, ctts_count: 425
[mov,mp4,m4a,3gp,3g2,mj2 @ 0x138008200] Offset DTS by 2 to make first pts zero.
[mov,mp4,m4a,3gp,3g2,mj2 @ 0x138008200] Setting codecpar->delay to 2 for stream st: 0
[mov,mp4,m4a,3gp,3g2,mj2 @ 0x138008200] Unknown dref type 0x206c7275 size 12
[mov,mp4,m4a,3gp,3g2,mj2 @ 0x138008200] Processing st: 1, edit list 0 - media time: 0, duration: 816080
[mov,mp4,m4a,3gp,3g2,mj2 @ 0x138008200] Before avformat_find_stream_info() pos: 10389 bytes read:32768 seeks:0 nb_streams:2
[h264 @ 0x138018400] nal_unit_type: 7(SPS), nal_ref_idc: 3
[h264 @ 0x138018400] nal_unit_type: 8(PPS), nal_ref_idc: 3
[h264 @ 0x138018400] nal_unit_type: 6(SEI), nal_ref_idc: 0
[h264 @ 0x138018400] nal_unit_type: 5(IDR), nal_ref_idc: 3
[h264 @ 0x138018400] Format yuv420p chosen by get_format().
[h264 @ 0x138018400] Reinit context to 1920x1088, pix_fmt: yuv420p
[h264 @ 0x138018400] no picture 
[mov,mp4,m4a,3gp,3g2,mj2 @ 0x138008200] All info found
[mov,mp4,m4a,3gp,3g2,mj2 @ 0x138008200] After avformat_find_stream_info() pos: 329017 bytes read:344317 seeks:0 frames:14
Input #0, mov,mp4,m4a,3gp,3g2,mj2, from 'Bee Farm.mp4':
  Metadata:
    major_brand     : mp42
    minor_version   : 0
    compatible_brands: mp42mp41isomavc1
    creation_time   : 2017-03-03T07:48:17.000000Z
  Duration: 00:00:17.00, start: 0.000000, bitrate: 4610 kb/s
  Stream #0:0(und), 13, 1/25: Video: h264 (High), 1 reference frame (avc1 / 0x31637661), yuv420p(tv, bt709, left), 1920x1080 (1920x1088) [SAR 1:1 DAR 16:9], 0/1, 4350 kb/s, 25 fps, 25 tbr, 25 tbn, 50 tbc (default)
    Metadata:
      creation_time   : 2017-03-03T07:48:17.000000Z
      handler_name    : L-SMASH Video Handler
      vendor_id       : [0][0][0][0]
      encoder         : AVC Coding
  Stream #0:1(und), 1, 1/48000: Audio: aac (LC) (mp4a / 0x6134706D), 48000 Hz, stereo, fltp, 255 kb/s (default)
    Metadata:
      creation_time   : 2017-03-03T07:48:17.000000Z
      handler_name    : L-SMASH Audio Handler
      vendor_id       : [0][0][0][0]
[h264 @ 0x138039800] nal_unit_type: 7(SPS), nal_ref_idc: 3
[h264 @ 0x138039800] nal_unit_type: 8(PPS), nal_ref_idc: 3
[AVIOContext @ 0x137e1efc0] Statistics: 344317 bytes read, 0 seeks
